<svg xmlns="http://www.w3.org/2000/svg" xmlns:xlink="http://www.w3.org/1999/xlink" width="49.456" height="49.512" viewBox="0 0 49.456 49.512">
  <defs>
    <style>
      .cls-1 {
        fill: url(#linear-gradient);
      }

      .cls-2 {
        fill: #2db14c;
      }

      .cls-3 {
        fill: #54dc54;
      }
    </style>
    <linearGradient id="linear-gradient" x1="0.067" y1="0.118" x2="0.917" y2="0.893" gradientUnits="objectBoundingBox">
      <stop offset="0" stop-color="#f2f2f2"/>
      <stop offset="1" stop-color="#d8d8d8"/>
    </linearGradient>
  </defs>
  <g id="BPJS" transform="translate(-271 -106.5)">
    <path id="Path_6316" data-name="Path 6316" class="cls-1" d="M44.593,43.79l.042-.042c.056-.056.112-.126.169-.183.014-.014.014-.028.028-.028.056-.07.112-.126.169-.2,0-.014.014-.014.014-.028.126-.155.253-.3.365-.45a.427.427,0,0,0,.07-.1c.028-.042.07-.084.1-.126s.07-.084.1-.126a.427.427,0,0,0,.07-.1c.028-.042.07-.1.1-.141a.6.6,0,0,0,.07-.1c.028-.056.07-.1.1-.155.014-.028.042-.056.056-.084a1.482,1.482,0,0,1,.1-.155c.014-.028.042-.056.056-.084.028-.056.07-.112.1-.169a.294.294,0,0,1,.056-.084c.028-.056.07-.112.1-.169l.042-.084c.028-.056.07-.112.1-.169l.042-.084c.028-.056.07-.112.1-.183l.042-.084a1.161,1.161,0,0,1,.1-.183.307.307,0,0,1,.042-.07c.028-.056.056-.126.084-.183a.307.307,0,0,1,.042-.07c.028-.07.056-.126.084-.2a.237.237,0,0,0,.028-.07c.028-.07.056-.126.084-.2.014-.028.014-.042.028-.07.028-.07.056-.126.084-.2.014-.028.014-.042.028-.07.028-.07.056-.141.084-.2.014-.028.014-.042.028-.07a1.237,1.237,0,0,0,.07-.211c.014-.028.014-.042.028-.07.028-.07.042-.141.07-.211.014-.028.014-.042.028-.07.028-.07.042-.141.07-.211,0-.028.014-.042.014-.07.028-.07.042-.141.07-.225a.608.608,0,0,0,.014-.07c.014-.07.042-.155.056-.225v-.028c0-.014,0-.028.014-.028l.126-.548a55.205,55.205,0,0,0,1.405-12.466A55.864,55.864,0,0,0,48.05,12.225,14.17,14.17,0,0,0,44.8,5.8l-.014-.014c-.056-.056-.1-.112-.155-.169l-.042-.042c-.042-.042-.084-.1-.126-.141l-.07-.07-.112-.112a.649.649,0,0,0-.1-.1L44.1,5.072l-.126-.126L43.933,4.9a1.6,1.6,0,0,1-.155-.155l-.014-.014a14.056,14.056,0,0,0-6.633-3.429,55.864,55.864,0,0,0-24.9,0l-.548.126c-.014,0-.028,0-.028.014h-.028c-.07.014-.155.042-.225.056-.014,0-.042.014-.056.014a2,2,0,0,0-.225.07c-.028,0-.042.014-.07.014-.07.028-.141.042-.211.07-.028.014-.042.014-.07.028-.07.028-.141.042-.211.07-.028.014-.042.014-.07.028a1.237,1.237,0,0,1-.211.07c-.028.014-.042.014-.07.028-.07.028-.141.056-.2.084-.028.014-.042.014-.07.028-.07.028-.126.056-.2.084-.028.014-.042.014-.07.028-.07.028-.126.056-.2.084a.237.237,0,0,1-.07.028c-.07.028-.126.056-.2.084a.307.307,0,0,0-.07.042c-.056.028-.126.056-.183.084a.307.307,0,0,0-.07.042,1.162,1.162,0,0,0-.183.1l-.084.042c-.056.028-.112.07-.183.1l-.084.042c-.056.028-.112.07-.169.1L8.1,2.907c-.056.028-.112.07-.169.1a.294.294,0,0,0-.084.056c-.056.028-.112.07-.169.1-.028.014-.056.042-.084.056a1.481,1.481,0,0,0-.155.1c-.028.014-.056.042-.084.056-.056.028-.1.07-.155.1a.6.6,0,0,1-.1.07c-.042.028-.1.07-.141.1a.427.427,0,0,1-.1.07c-.042.028-.084.07-.126.1s-.084.07-.126.1-.07.056-.1.084c-.155.126-.309.239-.45.365-.014,0-.014.014-.028.014a2.447,2.447,0,0,0-.2.169c-.014.014-.028.014-.028.028-.056.056-.126.112-.183.169l-.042.042-.169.169-.042.042L5.2,5.156,5.158,5.2l-.169.169-.042.042-.169.169-.042.042a.968.968,0,0,0-.155.183c-.014.014-.028.028-.028.042a1.78,1.78,0,0,0-.155.183c-.014.014-.028.028-.028.042-.056.056-.1.126-.155.183-.014.014-.014.028-.028.042-.056.07-.1.126-.155.2-.014.014-.014.028-.028.042-.056.07-.1.126-.155.2-.014.014-.014.028-.028.028-.056.07-.1.141-.155.211L3.64,7c-.056.07-.1.141-.155.211,0,.014-.014.014-.014.028a1.214,1.214,0,0,0-.141.225c0,.014-.014.014-.014.028-.042.07-.1.155-.141.225l-.014.014c-.042.084-.1.155-.141.239a.014.014,0,0,1-.014.014c-.042.084-.1.169-.141.239v.014c-.042.084-.1.169-.141.253h0a16.413,16.413,0,0,0-1.321,3.738,55.864,55.864,0,0,0,0,24.9,14.008,14.008,0,0,0,1.644,4.2h0a1.392,1.392,0,0,0,.155.239.014.014,0,0,0,.014.014c.042.084.1.155.141.239l.014.014c.042.07.1.155.141.225,0,.014.014.014.014.028.042.07.1.141.141.211.014.014.014.028.028.042.042.07.1.126.141.2.014.014.028.028.028.042.042.056.1.126.141.183.014.014.028.042.042.056a1.489,1.489,0,0,0,.141.169c.014.014.028.042.056.056a1.493,1.493,0,0,0,.126.155c.014.028.042.042.056.07.042.056.084.1.126.155.028.028.042.056.07.084a1.268,1.268,0,0,1,.126.141l.084.084c.042.042.07.084.112.126a.611.611,0,0,1,.084.1l.112.112.1.1.1.1.112.112c.028.028.07.056.1.084s.084.07.126.112l.084.084.126.126c.028.028.056.042.084.07s.1.084.141.126c.028.014.042.042.07.056.056.042.1.084.155.126a.247.247,0,0,1,.07.056,1.489,1.489,0,0,1,.169.141c.014.014.042.028.056.042.056.042.126.1.183.141l.042.042c.07.042.126.1.2.141.014.014.028.014.042.028.07.042.141.1.211.141.014,0,.014.014.028.014.07.042.141.1.225.141.014,0,.014.014.028.014a1.968,1.968,0,0,0,.225.141.014.014,0,0,1,.014.014,2.116,2.116,0,0,0,.239.141h0a14.009,14.009,0,0,0,4.2,1.644,55.205,55.205,0,0,0,12.466,1.405,55.864,55.864,0,0,0,12.438-1.405,14.148,14.148,0,0,0,3.71-1.363h0c.084-.042.169-.1.253-.141h.014c.084-.042.169-.1.239-.141a.014.014,0,0,0,.014-.014c.084-.042.155-.1.239-.141l.014-.014c.07-.042.155-.1.225-.141.014,0,.014-.014.028-.014.07-.042.141-.1.225-.141.014,0,.014-.014.028-.014a2.011,2.011,0,0,0,.211-.155L42.4,45.7c.07-.056.141-.1.211-.155.014-.014.028-.014.028-.028a2.4,2.4,0,0,0,.2-.155c.014-.014.028-.014.042-.028.07-.056.126-.1.2-.155.014-.014.028-.014.042-.028A2.1,2.1,0,0,0,43.3,45c.014-.014.028-.028.042-.028.056-.056.126-.1.183-.155.014-.014.028-.028.042-.028a.968.968,0,0,1,.183-.155l.042-.042.169-.169L44,44.381l.169-.169.042-.042L44.382,44l.042-.042A.953.953,0,0,0,44.593,43.79Z" transform="translate(271 106.6)"/>
    <g id="PcL2yi.tif" transform="translate(281 116.5)">
      <g id="Group_223" data-name="Group 223" transform="translate(0 0)">
        <path id="Path_4806" data-name="Path 4806" class="cls-2" d="M53.2,243.676c.024-.241.048-.482.066-.723a12.421,12.421,0,0,1,.476-2.7.994.994,0,0,1,.066-.157c.018.036.036.054.036.072a6.317,6.317,0,0,0,1.06,3.462,24.738,24.738,0,0,0,2.468,3.281,8.714,8.714,0,0,1,1.421,2.21,9,9,0,0,1,.3.969.624.624,0,0,1,0,.151c-.187-.054-.349-.1-.512-.144a3.561,3.561,0,0,0-1.511-.078,3.83,3.83,0,0,0-1.872.849c-.078.066-.126.078-.193-.03a12.445,12.445,0,0,1-1.439-3.739,15.357,15.357,0,0,1-.337-2.721.2.2,0,0,0-.024-.078Z" transform="translate(-53.2 -228.902)"/>
        <path id="Path_4807" data-name="Path 4807" class="cls-3" d="M242.951,449.276c-.181-.024-.361-.048-.542-.06a12.565,12.565,0,0,1-2.547-.464,1.4,1.4,0,0,1-.163-.072c.2-.012.355-.018.518-.024a5.579,5.579,0,0,0,2.149-.584,15.784,15.784,0,0,0,3.281-2.2c.608-.494,1.21-.987,1.836-1.457a5.731,5.731,0,0,1,1.975-.957c.126-.03.253-.042.379-.06a9.478,9.478,0,0,0-.211,1.011,3.7,3.7,0,0,0,.849,2.866c.1.126.084.163-.048.241a12.42,12.42,0,0,1-3.528,1.373,14.155,14.155,0,0,1-2.517.355.483.483,0,0,0-.126.03Z" transform="translate(-228.471 -419.962)"/>
        <path id="Path_4808" data-name="Path 4808" class="cls-3" d="M182.811,54.1c.211.03.421.06.626.1.668.138,1.331.277,2,.421.006,0,.012.018.048.048-.132.006-.241.018-.349.018a5.823,5.823,0,0,0-2.39.644,14.951,14.951,0,0,0-2.89,1.915c-.65.518-1.282,1.06-1.945,1.559a5.861,5.861,0,0,1-2.107,1.066c-.138.036-.277.06-.433.09a.638.638,0,0,1,.018-.132,3.774,3.774,0,0,0-.644-3.769c-.1-.12-.078-.163.048-.235a12.515,12.515,0,0,1,3.287-1.313,13.814,13.814,0,0,1,2.276-.379c.03,0,.054-.024.084-.036Z" transform="translate(-167.368 -54.1)"/>
        <path id="Path_4809" data-name="Path 4809" class="cls-2" d="M76.952,422.2a3.152,3.152,0,1,1,3.167-3.125A3.142,3.142,0,0,1,76.952,422.2Z" transform="translate(-72.557 -394.117)"/>
        <path id="Path_4810" data-name="Path 4810" class="cls-2" d="M418.762,73.9a3.159,3.159,0,1,1-3.173,3.245A3.143,3.143,0,0,1,418.762,73.9Z" transform="translate(-393.771 -72.707)"/>
        <path id="Path_4811" data-name="Path 4811" class="cls-3" d="M418.82,422.2a3.152,3.152,0,1,1,3.167-3.119A3.137,3.137,0,0,1,418.82,422.2Z" transform="translate(-393.852 -394.117)"/>
        <path id="Path_4812" data-name="Path 4812" class="cls-3" d="M76.958,80.208a3.155,3.155,0,1,1,3.155-3.155A3.157,3.157,0,0,1,76.958,80.208Z" transform="translate(-72.557 -72.707)"/>
        <path id="Path_4813" data-name="Path 4813" class="cls-2" d="M443.1,175.413c.09.03.151.048.211.072a3.777,3.777,0,0,0,3.606-.608c.259-.2.223-.181.361.06a11.8,11.8,0,0,1,1.162,2.806,14.6,14.6,0,0,1,.506,5.027,12.308,12.308,0,0,1-.536,2.8,1.127,1.127,0,0,1-.03-.12,6.056,6.056,0,0,0-.747-2.818,15.925,15.925,0,0,0-1.836-2.715c-.572-.71-1.156-1.415-1.7-2.149a5.166,5.166,0,0,1-.981-2.191C443.112,175.527,443.106,175.491,443.1,175.413Z" transform="translate(-419.625 -167.477)"/>
        <path id="Path_4814" data-name="Path 4814" class="cls-2" d="M324.125,238.73h1.048c.006.012.018.03.024.042-.114.126-.229.259-.349.379-.62.626-1.246,1.252-1.86,1.884-.1.1-.157.1-.259,0q-1.039-1.066-2.089-2.119c-.048-.048-.084-.1-.157-.181h1.108v-2.613H319.2a.761.761,0,0,1,.1-.169l2.1-2.167a.572.572,0,0,1,.47-.2,6.412,6.412,0,0,0,.68,0,1.492,1.492,0,0,1,1.577,1.565c-.012,1.138,0,2.276,0,3.42Z" transform="translate(-303.185 -222.775)"/>
        <path id="Path_4815" data-name="Path 4815" class="cls-2" d="M175.6,238.336c.12-.132.235-.265.361-.391.626-.632,1.252-1.258,1.878-1.891.072-.072.12-.072.193,0,.723.735,1.439,1.463,2.161,2.192a1.16,1.16,0,0,1,.1.132h-1.084V241h2.4c-.066.084-.1.132-.132.175q-1.039,1.075-2.071,2.149a.61.61,0,0,1-.482.211c-.253-.012-.512-.006-.765-.006a1.471,1.471,0,0,1-1.487-1.487c0-1.108.006-2.21.006-3.317v-.331h-1.048Z" transform="translate(-168.231 -225.048)"/>
        <path id="Path_4816" data-name="Path 4816" class="cls-2" d="M238.671,176.784V175.73a.336.336,0,0,0,.048-.03q1.174,1.165,2.336,2.312c-.789.795-1.571,1.577-2.378,2.384v-1.078h-2.649v2.342l-.048.018c-.145-.132-.3-.259-.434-.4-.452-.434-.9-.867-1.343-1.306-.181-.175-.373-.343-.542-.536a.542.542,0,0,1-.126-.295,9.786,9.786,0,0,1-.006-1.03,1.446,1.446,0,0,1,1.421-1.337h3.5C238.521,176.784,238.581,176.784,238.671,176.784Z" transform="translate(-222.662 -168.379)"/>
        <path id="Path_4817" data-name="Path 4817" class="cls-2" d="M238.322,320.776v1.084h2.631V319.5a1.4,1.4,0,0,1,.157.09c.608.584,1.21,1.162,1.812,1.746.1.1.2.211.307.3a.61.61,0,0,1,.247.566c-.012.271.006.548-.012.819A1.44,1.44,0,0,1,242,324.4c-1.156,0-2.312.006-3.468-.006-.163,0-.217.042-.2.2a4.992,4.992,0,0,1-.036.891c-.09-.084-.187-.169-.277-.259-.662-.656-1.325-1.319-1.987-1.975-.084-.084-.1-.138-.006-.229q1.048-1.03,2.083-2.059C238.166,320.915,238.226,320.867,238.322,320.776Z" transform="translate(-224.956 -303.521)"/>
        <path id="Path_4818" data-name="Path 4818" class="cls-2" d="M304.8,72.166a6.242,6.242,0,0,1,2.812-1.276,6.155,6.155,0,0,1,4.046.879,3.9,3.9,0,0,0-.548,4.034c-.187-.03-.343-.048-.5-.078a4.809,4.809,0,0,1-2.059-1.18c-.6-.518-1.2-1.042-1.818-1.535a3.928,3.928,0,0,0-1.71-.741c-.072-.012-.138-.036-.211-.048C304.806,72.2,304.806,72.184,304.8,72.166Z" transform="translate(-289.652 -69.818)"/>
        <path id="Path_4819" data-name="Path 4819" class="cls-2" d="M176.7,441.1c.181.03.325.042.464.078a4.048,4.048,0,0,1,1.7.879c.488.409.957.831,1.433,1.252a5.355,5.355,0,0,0,2.264,1.288,2.546,2.546,0,0,1,.452.138c-.217.151-.421.307-.644.44a6.03,6.03,0,0,1-1.5.686,5.321,5.321,0,0,1-2.137.175,6.969,6.969,0,0,1-2.228-.7c-.415-.211-.415-.114-.145-.512a3.788,3.788,0,0,0,.391-3.552C176.745,441.232,176.733,441.184,176.7,441.1Z" transform="translate(-168.773 -417.8)"/>
        <path id="Path_4820" data-name="Path 4820" class="cls-3" d="M72.234,182.888a5.992,5.992,0,0,1-1.361-3.54A6.416,6.416,0,0,1,71.807,176a3.888,3.888,0,0,0,4.022.554.265.265,0,0,0,.042.036c-.084.295-.144.6-.247.885a5.576,5.576,0,0,1-1.2,1.8c-.361.4-.729.807-1.078,1.222a4.753,4.753,0,0,0-1.066,2.24A1.125,1.125,0,0,0,72.234,182.888Z" transform="translate(-69.808 -168.661)"/>
        <path id="Path_4821" data-name="Path 4821" class="cls-3" d="M444.706,304.8c.042.042.072.078.1.114a6.3,6.3,0,0,1,1.174,2.6,5.1,5.1,0,0,1-.169,2.535c-.163.5-.4.969-.6,1.457-.06.151-.139.138-.247.054a3.748,3.748,0,0,0-3.558-.554c-.09.03-.175.06-.313.114.03-.187.048-.349.09-.512a4.488,4.488,0,0,1,1.036-1.872c.4-.464.819-.915,1.222-1.385a4.932,4.932,0,0,0,1.228-2.487C444.67,304.848,444.682,304.836,444.706,304.8Z" transform="translate(-417.746 -289.706)"/>
      </g>
    </g>
  </g>
</svg>
