<svg xmlns="http://www.w3.org/2000/svg" xmlns:xlink="http://www.w3.org/1999/xlink" width="49.456" height="49.512" viewBox="0 0 49.456 49.512">
  <defs>
    <style>
      .cls-1 {
        fill: url(#linear-gradient);
      }

      .cls-2 {
        fill: #54dc54;
      }

      .cls-3 {
        fill: #2db14c;
      }

      .cls-4 {
        clip-path: url(#clip-path);
      }

      .cls-5 {
        fill: #ff8700;
      }

      .cls-6 {
        fill: #fec309;
      }

      .cls-7 {
        fill: #fff;
      }

      .cls-8 {
        clip-path: url(#clip-path-2);
      }

      .cls-9 {
        clip-path: url(#clip-path-3);
      }
    </style>
    <linearGradient id="linear-gradient" y1="0.5" x2="1.001" y2="0.5" gradientUnits="objectBoundingBox">
      <stop offset="0" stop-color="#d6f8c7"/>
      <stop offset="1" stop-color="#61e1a2"/>
    </linearGradient>
    <clipPath id="clip-path">
      <path id="Path_6256" data-name="Path 6256" d="M494.62,236.7h-3.988a.934.934,0,0,0-.932.932V258.58a.934.934,0,0,0,.932.932h2a3.21,3.21,0,0,0,2.929-3.427V237.632A.941.941,0,0,0,494.62,236.7Z" transform="translate(-489.7 -236.7)"/>
    </clipPath>
    <clipPath id="clip-path-2">
      <path id="Path_6262" data-name="Path 6262" d="M190.806,302.7H179.832a.934.934,0,0,0-.932.932v17.457a.934.934,0,0,0,.932.932h10.974a.934.934,0,0,0,.932-.932V303.627A.929.929,0,0,0,190.806,302.7Z" transform="translate(-178.9 -302.7)"/>
    </clipPath>
    <clipPath id="clip-path-3">
      <path id="Path_6265" data-name="Path 6265" d="M190.806,379.864H179.832a.932.932,0,1,1,0-1.864h10.974a.932.932,0,1,1,0,1.864Z" transform="translate(-178.9 -378)"/>
    </clipPath>
  </defs>
  <g id="CARI_MASJID" data-name="CARI MASJID" transform="translate(-203 -106.5)">
    <path id="Path_6311" data-name="Path 6311" class="cls-1" d="M44.593,43.79l.042-.042c.056-.056.112-.126.169-.183.014-.014.014-.028.028-.028.056-.07.112-.126.169-.2,0-.014.014-.014.014-.028.126-.155.253-.3.365-.45a.427.427,0,0,0,.07-.1c.028-.042.07-.084.1-.126s.07-.084.1-.126a.427.427,0,0,0,.07-.1c.028-.042.07-.1.1-.141a.6.6,0,0,0,.07-.1c.028-.056.07-.1.1-.155.014-.028.042-.056.056-.084a1.482,1.482,0,0,1,.1-.155c.014-.028.042-.056.056-.084.028-.056.07-.112.1-.169a.294.294,0,0,1,.056-.084c.028-.056.07-.112.1-.169l.042-.084c.028-.056.07-.112.1-.169l.042-.084c.028-.056.07-.112.1-.183l.042-.084a1.161,1.161,0,0,1,.1-.183.307.307,0,0,1,.042-.07c.028-.056.056-.126.084-.183a.307.307,0,0,1,.042-.07c.028-.07.056-.126.084-.2a.237.237,0,0,0,.028-.07c.028-.07.056-.126.084-.2.014-.028.014-.042.028-.07.028-.07.056-.126.084-.2.014-.028.014-.042.028-.07.028-.07.056-.141.084-.2.014-.028.014-.042.028-.07a1.237,1.237,0,0,0,.07-.211c.014-.028.014-.042.028-.07.028-.07.042-.141.07-.211.014-.028.014-.042.028-.07.028-.07.042-.141.07-.211,0-.028.014-.042.014-.07.028-.07.042-.141.07-.225a.608.608,0,0,0,.014-.07c.014-.07.042-.155.056-.225v-.028c0-.014,0-.028.014-.028l.126-.548a55.205,55.205,0,0,0,1.405-12.466A55.864,55.864,0,0,0,48.05,12.225,14.17,14.17,0,0,0,44.8,5.8l-.014-.014c-.056-.056-.1-.112-.155-.169l-.042-.042c-.042-.042-.084-.1-.126-.141l-.07-.07-.112-.112a.649.649,0,0,0-.1-.1L44.1,5.072l-.126-.126L43.933,4.9a1.6,1.6,0,0,1-.155-.155l-.014-.014a14.056,14.056,0,0,0-6.633-3.429,55.864,55.864,0,0,0-24.9,0l-.548.126c-.014,0-.028,0-.028.014h-.028c-.07.014-.155.042-.225.056-.014,0-.042.014-.056.014a2,2,0,0,0-.225.07c-.028,0-.042.014-.07.014-.07.028-.141.042-.211.07-.028.014-.042.014-.07.028-.07.028-.141.042-.211.07-.028.014-.042.014-.07.028a1.237,1.237,0,0,1-.211.07c-.028.014-.042.014-.07.028-.07.028-.141.056-.2.084-.028.014-.042.014-.07.028-.07.028-.126.056-.2.084-.028.014-.042.014-.07.028-.07.028-.126.056-.2.084a.237.237,0,0,1-.07.028c-.07.028-.126.056-.2.084a.307.307,0,0,0-.07.042c-.056.028-.126.056-.183.084a.307.307,0,0,0-.07.042,1.162,1.162,0,0,0-.183.1l-.084.042c-.056.028-.112.07-.183.1l-.084.042c-.056.028-.112.07-.169.1L8.1,2.907c-.056.028-.112.07-.169.1a.294.294,0,0,0-.084.056c-.056.028-.112.07-.169.1-.028.014-.056.042-.084.056a1.481,1.481,0,0,0-.155.1c-.028.014-.056.042-.084.056-.056.028-.1.07-.155.1a.6.6,0,0,1-.1.07c-.042.028-.1.07-.141.1a.427.427,0,0,1-.1.07c-.042.028-.084.07-.126.1s-.084.07-.126.1-.07.056-.1.084c-.155.126-.309.239-.45.365-.014,0-.014.014-.028.014a2.447,2.447,0,0,0-.2.169c-.014.014-.028.014-.028.028-.056.056-.126.112-.183.169l-.042.042-.169.169-.042.042L5.2,5.156,5.158,5.2l-.169.169-.042.042-.169.169-.042.042a.968.968,0,0,0-.155.183c-.014.014-.028.028-.028.042a1.78,1.78,0,0,0-.155.183c-.014.014-.028.028-.028.042-.056.056-.1.126-.155.183-.014.014-.014.028-.028.042-.056.07-.1.126-.155.2-.014.014-.014.028-.028.042-.056.07-.1.126-.155.2-.014.014-.014.028-.028.028-.056.07-.1.141-.155.211L3.64,7c-.056.07-.1.141-.155.211,0,.014-.014.014-.014.028a1.214,1.214,0,0,0-.141.225c0,.014-.014.014-.014.028-.042.07-.1.155-.141.225l-.014.014c-.042.084-.1.155-.141.239a.014.014,0,0,1-.014.014c-.042.084-.1.169-.141.239v.014c-.042.084-.1.169-.141.253h0a16.413,16.413,0,0,0-1.321,3.738,55.864,55.864,0,0,0,0,24.9,14.008,14.008,0,0,0,1.644,4.2h0a1.392,1.392,0,0,0,.155.239.014.014,0,0,0,.014.014c.042.084.1.155.141.239l.014.014c.042.07.1.155.141.225,0,.014.014.014.014.028.042.07.1.141.141.211.014.014.014.028.028.042.042.07.1.126.141.2.014.014.028.028.028.042.042.056.1.126.141.183.014.014.028.042.042.056a1.489,1.489,0,0,0,.141.169c.014.014.028.042.056.056a1.493,1.493,0,0,0,.126.155c.014.028.042.042.056.07.042.056.084.1.126.155.028.028.042.056.07.084a1.268,1.268,0,0,1,.126.141l.084.084c.042.042.07.084.112.126a.611.611,0,0,1,.084.1l.112.112.1.1.1.1.112.112c.028.028.07.056.1.084s.084.07.126.112l.084.084.126.126c.028.028.056.042.084.07s.1.084.141.126c.028.014.042.042.07.056.056.042.1.084.155.126a.247.247,0,0,1,.07.056,1.489,1.489,0,0,1,.169.141c.014.014.042.028.056.042.056.042.126.1.183.141l.042.042c.07.042.126.1.2.141.014.014.028.014.042.028.07.042.141.1.211.141.014,0,.014.014.028.014.07.042.141.1.225.141.014,0,.014.014.028.014a1.968,1.968,0,0,0,.225.141.014.014,0,0,1,.014.014,2.116,2.116,0,0,0,.239.141h0a14.009,14.009,0,0,0,4.2,1.644,55.205,55.205,0,0,0,12.466,1.405,55.864,55.864,0,0,0,12.438-1.405,14.148,14.148,0,0,0,3.71-1.363h0c.084-.042.169-.1.253-.141h.014c.084-.042.169-.1.239-.141a.014.014,0,0,0,.014-.014c.084-.042.155-.1.239-.141l.014-.014c.07-.042.155-.1.225-.141.014,0,.014-.014.028-.014.07-.042.141-.1.225-.141.014,0,.014-.014.028-.014a2.011,2.011,0,0,0,.211-.155L42.4,45.7c.07-.056.141-.1.211-.155.014-.014.028-.014.028-.028a2.4,2.4,0,0,0,.2-.155c.014-.014.028-.014.042-.028.07-.056.126-.1.2-.155.014-.014.028-.014.042-.028A2.1,2.1,0,0,0,43.3,45c.014-.014.028-.028.042-.028.056-.056.126-.1.183-.155.014-.014.028-.028.042-.028a.968.968,0,0,1,.183-.155l.042-.042.169-.169L44,44.381l.169-.169.042-.042L44.382,44l.042-.042A.953.953,0,0,0,44.593,43.79Z" transform="translate(203 106.6)"/>
    <g id="surface1_1_" transform="translate(212 11.6)">
      <path id="Path_6250" data-name="Path 6250" class="cls-2" d="M81.719,378H76.232a.934.934,0,0,0-.932.932V392.4a.934.934,0,0,0,.932.932h5.487a.934.934,0,0,0,.932-.932V378.932A.934.934,0,0,0,81.719,378Z" transform="translate(-71.312 -258.635)"/>
      <path id="Path_6251" data-name="Path 6251" class="cls-3" d="M392.519,378h-5.487a.934.934,0,0,0-.932.932V392.4a.934.934,0,0,0,.932.932h5.487a.934.934,0,0,0,.932-.932V378.932A.934.934,0,0,0,392.519,378Z" transform="translate(-365.65 -258.635)"/>
      <path id="Path_6252" data-name="Path 6252" class="cls-3" d="M190.806,302.7H179.832a.934.934,0,0,0-.932.932v17.457a.934.934,0,0,0,.932.932h10.974a.934.934,0,0,0,.932-.932V303.627A.929.929,0,0,0,190.806,302.7Z" transform="translate(-169.425 -187.324)"/>
      <path id="Path_6253" data-name="Path 6253" class="cls-3" d="M4.92,236.7H.932a.934.934,0,0,0-.932.932v18.453a3.21,3.21,0,0,0,2.929,3.427h2a.934.934,0,0,0,.932-.932V237.632A.942.942,0,0,0,4.92,236.7Z" transform="translate(0 -124.819)"/>
      <path id="Path_6254" data-name="Path 6254" class="cls-3" d="M494.62,236.7h-3.988a.934.934,0,0,0-.932.932V258.58a.934.934,0,0,0,.932.932h2a3.21,3.21,0,0,0,2.929-3.427V237.632A.941.941,0,0,0,494.62,236.7Z" transform="translate(-463.763 -124.819)"/>
      <g id="Group_2512" data-name="Group 2512" transform="translate(25.937 111.881)">
        <g id="Group_2511" data-name="Group 2511" class="cls-4">
          <path id="Path_6255" data-name="Path 6255" class="cls-2" d="M333.627,33.527H315.693A15.592,15.592,0,0,1,300.1,17.934V0h17.934a15.592,15.592,0,0,1,15.593,15.593Z" transform="translate(-310.142 -12.537)"/>
        </g>
      </g>
      <path id="Path_6257" data-name="Path 6257" class="cls-5" d="M162.1,108.39a2.56,2.56,0,0,1-2.558-2.558.932.932,0,1,0-1.864,0,2.56,2.56,0,0,1-2.558,2.558,4.423,4.423,0,1,0,0,8.845H162.1a4.423,4.423,0,1,0,0-8.845Z" transform="translate(-142.718)"/>
      <path id="Path_6258" data-name="Path 6258" class="cls-5" d="M3.925,181.2a.07.07,0,0,1-.069-.069.932.932,0,1,0-1.864,0,.07.07,0,0,1-.069.069,1.928,1.928,0,0,0,.005,3.856h2a1.928,1.928,0,1,0,0-3.856Z" transform="translate(0 -71.312)"/>
      <path id="Path_6259" data-name="Path 6259" class="cls-6" d="M493.53,181.2a.07.07,0,0,1-.069-.069.932.932,0,0,0-1.864,0,.07.07,0,0,1-.069.069,1.928,1.928,0,1,0,0,3.856h2a1.928,1.928,0,0,0,.005-3.856Z" transform="translate(-463.669 -71.312)"/>
      <path id="Path_6260" data-name="Path 6260" class="cls-7" d="M248.11,519.379a.955.955,0,0,0-.763,0c-.424.191-2.548,1.224-2.548,2.844v3.988a.934.934,0,0,0,.932.932h3.988a.934.934,0,0,0,.932-.932v-3.988C250.658,520.6,248.534,519.57,248.11,519.379Z" transform="translate(-231.834 -392.452)"/>
      <g id="Group_2514" data-name="Group 2514" transform="translate(9.475 115.376)">
        <g id="Group_2513" data-name="Group 2513" class="cls-8">
          <path id="Path_6261" data-name="Path 6261" class="cls-2" d="M333.627,33.527H315.693A15.592,15.592,0,0,1,300.1,17.934V0h17.934a15.592,15.592,0,0,1,15.593,15.593Z" transform="translate(-293.681 -16.032)"/>
        </g>
      </g>
      <path id="Path_6263" data-name="Path 6263" class="cls-5" d="M190.806,379.864H179.832a.932.932,0,1,1,0-1.864h10.974a.932.932,0,1,1,0,1.864Z" transform="translate(-169.425 -258.635)"/>
      <g id="Group_2516" data-name="Group 2516" transform="translate(9.475 119.365)">
        <g id="Group_2515" data-name="Group 2515" class="cls-9">
          <path id="Path_6264" data-name="Path 6264" class="cls-6" d="M333.627,33.527H315.693A15.592,15.592,0,0,1,300.1,17.934V0h17.934a15.592,15.592,0,0,1,15.593,15.593Z" transform="translate(-293.681 -20.021)"/>
        </g>
      </g>
      <path id="Path_6266" data-name="Path 6266" class="cls-6" d="M308.013,112.813a4.43,4.43,0,0,0-4.423-4.423,2.56,2.56,0,0,1-2.558-2.558.934.934,0,0,0-.932-.932v12.335h3.49A4.424,4.424,0,0,0,308.013,112.813Z" transform="translate(-284.205)"/>
      <path id="Path_6267" data-name="Path 6267" class="cls-7" d="M302.1,527.144a.934.934,0,0,0,.932-.932v-3.988c0-1.621-2.119-2.653-2.548-2.844a.947.947,0,0,0-.381-.079v7.849h2Z" transform="translate(-284.205 -392.452)"/>
    </g>
  </g>
</svg>
