<svg xmlns="http://www.w3.org/2000/svg" xmlns:xlink="http://www.w3.org/1999/xlink" width="49.456" height="49.512" viewBox="0 0 49.456 49.512">
  <defs>
    <style>
      .cls-1 {
        fill: url(#linear-gradient);
      }

      .cls-2 {
        fill: #2db14c;
      }

      .cls-3 {
        clip-path: url(#clip-path);
      }

      .cls-4 {
        fill: #54dc54;
      }

      .cls-5 {
        fill: #fff;
      }

      .cls-6 {
        fill: #fec309;
      }

      .cls-7 {
        fill: #fec100;
      }

      .cls-8 {
        fill: #ff8700;
      }
    </style>
    <linearGradient id="linear-gradient" y1="0.5" x2="1.001" y2="0.5" gradientUnits="objectBoundingBox">
      <stop offset="0" stop-color="#d6f8c7"/>
      <stop offset="1" stop-color="#61e1a2"/>
    </linearGradient>
    <clipPath id="clip-path">
      <path id="Path_6240" data-name="Path 6240" d="M70.93,295.4c-.7-.755-1.012-1.118-1.012-1.813s0-1.133,1.168-2.357c1.274-1.33,3.017-3.158,3.017-9.247a.842.842,0,0,0-.786-.886H58.586a.842.842,0,0,0-.786.886c0,6.089,1.743,7.917,3.017,9.247a2.975,2.975,0,0,1,1.168,2.357c0,.564-.292.9-.947,1.612-1.289,1.4-3.238,3.52-3.238,9.982a.842.842,0,0,0,.786.886H73.317a.842.842,0,0,0,.786-.886C74.1,298.833,72.194,296.768,70.93,295.4Z" transform="translate(-57.8 -281.1)"/>
    </clipPath>
  </defs>
  <g id="JAM_SOLAT" data-name="JAM SOLAT" transform="translate(-120 -106.5)">
    <path id="Path_6310" data-name="Path 6310" class="cls-1" d="M44.593,43.79l.042-.042c.056-.056.112-.126.169-.183.014-.014.014-.028.028-.028.056-.07.112-.126.169-.2,0-.014.014-.014.014-.028.126-.155.253-.3.365-.45a.427.427,0,0,0,.07-.1c.028-.042.07-.084.1-.126s.07-.084.1-.126a.427.427,0,0,0,.07-.1c.028-.042.07-.1.1-.141a.6.6,0,0,0,.07-.1c.028-.056.07-.1.1-.155.014-.028.042-.056.056-.084a1.482,1.482,0,0,1,.1-.155c.014-.028.042-.056.056-.084.028-.056.07-.112.1-.169a.294.294,0,0,1,.056-.084c.028-.056.07-.112.1-.169l.042-.084c.028-.056.07-.112.1-.169l.042-.084c.028-.056.07-.112.1-.183l.042-.084a1.161,1.161,0,0,1,.1-.183.307.307,0,0,1,.042-.07c.028-.056.056-.126.084-.183a.307.307,0,0,1,.042-.07c.028-.07.056-.126.084-.2a.237.237,0,0,0,.028-.07c.028-.07.056-.126.084-.2.014-.028.014-.042.028-.07.028-.07.056-.126.084-.2.014-.028.014-.042.028-.07.028-.07.056-.141.084-.2.014-.028.014-.042.028-.07a1.237,1.237,0,0,0,.07-.211c.014-.028.014-.042.028-.07.028-.07.042-.141.07-.211.014-.028.014-.042.028-.07.028-.07.042-.141.07-.211,0-.028.014-.042.014-.07.028-.07.042-.141.07-.225a.608.608,0,0,0,.014-.07c.014-.07.042-.155.056-.225v-.028c0-.014,0-.028.014-.028l.126-.548a55.205,55.205,0,0,0,1.405-12.466A55.864,55.864,0,0,0,48.05,12.225,14.17,14.17,0,0,0,44.8,5.8l-.014-.014c-.056-.056-.1-.112-.155-.169l-.042-.042c-.042-.042-.084-.1-.126-.141l-.07-.07-.112-.112a.649.649,0,0,0-.1-.1L44.1,5.072l-.126-.126L43.933,4.9a1.6,1.6,0,0,1-.155-.155l-.014-.014a14.056,14.056,0,0,0-6.633-3.429,55.864,55.864,0,0,0-24.9,0l-.548.126c-.014,0-.028,0-.028.014h-.028c-.07.014-.155.042-.225.056-.014,0-.042.014-.056.014a2,2,0,0,0-.225.07c-.028,0-.042.014-.07.014-.07.028-.141.042-.211.07-.028.014-.042.014-.07.028-.07.028-.141.042-.211.07-.028.014-.042.014-.07.028a1.237,1.237,0,0,1-.211.07c-.028.014-.042.014-.07.028-.07.028-.141.056-.2.084-.028.014-.042.014-.07.028-.07.028-.126.056-.2.084-.028.014-.042.014-.07.028-.07.028-.126.056-.2.084a.237.237,0,0,1-.07.028c-.07.028-.126.056-.2.084a.307.307,0,0,0-.07.042c-.056.028-.126.056-.183.084a.307.307,0,0,0-.07.042,1.162,1.162,0,0,0-.183.1l-.084.042c-.056.028-.112.07-.183.1l-.084.042c-.056.028-.112.07-.169.1L8.1,2.907c-.056.028-.112.07-.169.1a.294.294,0,0,0-.084.056c-.056.028-.112.07-.169.1-.028.014-.056.042-.084.056a1.481,1.481,0,0,0-.155.1c-.028.014-.056.042-.084.056-.056.028-.1.07-.155.1a.6.6,0,0,1-.1.07c-.042.028-.1.07-.141.1a.427.427,0,0,1-.1.07c-.042.028-.084.07-.126.1s-.084.07-.126.1-.07.056-.1.084c-.155.126-.309.239-.45.365-.014,0-.014.014-.028.014a2.447,2.447,0,0,0-.2.169c-.014.014-.028.014-.028.028-.056.056-.126.112-.183.169l-.042.042-.169.169-.042.042L5.2,5.156,5.158,5.2l-.169.169-.042.042-.169.169-.042.042a.968.968,0,0,0-.155.183c-.014.014-.028.028-.028.042a1.78,1.78,0,0,0-.155.183c-.014.014-.028.028-.028.042-.056.056-.1.126-.155.183-.014.014-.014.028-.028.042-.056.07-.1.126-.155.2-.014.014-.014.028-.028.042-.056.07-.1.126-.155.2-.014.014-.014.028-.028.028-.056.07-.1.141-.155.211L3.64,7c-.056.07-.1.141-.155.211,0,.014-.014.014-.014.028a1.214,1.214,0,0,0-.141.225c0,.014-.014.014-.014.028-.042.07-.1.155-.141.225l-.014.014c-.042.084-.1.155-.141.239a.014.014,0,0,1-.014.014c-.042.084-.1.169-.141.239v.014c-.042.084-.1.169-.141.253h0a16.413,16.413,0,0,0-1.321,3.738,55.864,55.864,0,0,0,0,24.9,14.008,14.008,0,0,0,1.644,4.2h0a1.392,1.392,0,0,0,.155.239.014.014,0,0,0,.014.014c.042.084.1.155.141.239l.014.014c.042.07.1.155.141.225,0,.014.014.014.014.028.042.07.1.141.141.211.014.014.014.028.028.042.042.07.1.126.141.2.014.014.028.028.028.042.042.056.1.126.141.183.014.014.028.042.042.056a1.489,1.489,0,0,0,.141.169c.014.014.028.042.056.056a1.493,1.493,0,0,0,.126.155c.014.028.042.042.056.07.042.056.084.1.126.155.028.028.042.056.07.084a1.268,1.268,0,0,1,.126.141l.084.084c.042.042.07.084.112.126a.611.611,0,0,1,.084.1l.112.112.1.1.1.1.112.112c.028.028.07.056.1.084s.084.07.126.112l.084.084.126.126c.028.028.056.042.084.07s.1.084.141.126c.028.014.042.042.07.056.056.042.1.084.155.126a.247.247,0,0,1,.07.056,1.489,1.489,0,0,1,.169.141c.014.014.042.028.056.042.056.042.126.1.183.141l.042.042c.07.042.126.1.2.141.014.014.028.014.042.028.07.042.141.1.211.141.014,0,.014.014.028.014.07.042.141.1.225.141.014,0,.014.014.028.014a1.968,1.968,0,0,0,.225.141.014.014,0,0,1,.014.014,2.116,2.116,0,0,0,.239.141h0a14.009,14.009,0,0,0,4.2,1.644,55.205,55.205,0,0,0,12.466,1.405,55.864,55.864,0,0,0,12.438-1.405,14.148,14.148,0,0,0,3.71-1.363h0c.084-.042.169-.1.253-.141h.014c.084-.042.169-.1.239-.141a.014.014,0,0,0,.014-.014c.084-.042.155-.1.239-.141l.014-.014c.07-.042.155-.1.225-.141.014,0,.014-.014.028-.014.07-.042.141-.1.225-.141.014,0,.014-.014.028-.014a2.011,2.011,0,0,0,.211-.155L42.4,45.7c.07-.056.141-.1.211-.155.014-.014.028-.014.028-.028a2.4,2.4,0,0,0,.2-.155c.014-.014.028-.014.042-.028.07-.056.126-.1.2-.155.014-.014.028-.014.042-.028A2.1,2.1,0,0,0,43.3,45c.014-.014.028-.028.042-.028.056-.056.126-.1.183-.155.014-.014.028-.028.042-.028a.968.968,0,0,1,.183-.155l.042-.042.169-.169L44,44.381l.169-.169.042-.042L44.382,44l.042-.042A.953.953,0,0,0,44.593,43.79Z" transform="translate(120 106.6)"/>
    <g id="Group_2510" data-name="Group 2510" transform="translate(134 -112.5)">
      <path id="Path_6238" data-name="Path 6238" class="cls-2" d="M70.93,295.4c-.7-.755-1.012-1.118-1.012-1.813s0-1.133,1.168-2.357c1.274-1.33,3.017-3.158,3.017-9.247a.842.842,0,0,0-.786-.886H58.586a.842.842,0,0,0-.786.886c0,6.089,1.743,7.917,3.017,9.247a2.975,2.975,0,0,1,1.168,2.357c0,.564-.292.9-.947,1.612-1.289,1.4-3.238,3.52-3.238,9.982a.842.842,0,0,0,.786.886H73.317a.842.842,0,0,0,.786-.886C74.1,298.833,72.194,296.768,70.93,295.4Z" transform="translate(-54.889 -49.476)"/>
      <g id="Group_2508" data-name="Group 2508" transform="translate(2.911 231.624)">
        <g id="Group_2507" data-name="Group 2507" class="cls-3" transform="translate(0 0)">
          <path id="Path_6239" data-name="Path 6239" class="cls-4" d="M196.981,31.881H179.927A14.827,14.827,0,0,1,165.1,17.053V0h17.053a14.827,14.827,0,0,1,14.827,14.827Z" transform="translate(-159.696 -14.157)"/>
        </g>
      </g>
      <g id="Group_2509" data-name="Group 2509" transform="translate(3.15 235.411)">
        <path id="Path_6241" data-name="Path 6241" class="cls-5" d="M78.083,623.222l-7.031-6.3a.886.886,0,0,0-1.184,0l-7.026,6.3a.886.886,0,0,0,.589,1.546H77.489a.889.889,0,0,0,.594-1.546Z" transform="translate(-62.548 -603.585)"/>
        <path id="Path_6242" data-name="Path 6242" class="cls-5" d="M203.873,524.186a.886.886,0,1,0-.886.886A.888.888,0,0,0,203.873,524.186Z" transform="translate(-195.072 -514.889)"/>
        <path id="Path_6243" data-name="Path 6243" class="cls-5" d="M203.873,570.886a.886.886,0,1,0-.886.886A.888.888,0,0,0,203.873,570.886Z" transform="translate(-195.072 -559.237)"/>
        <path id="Path_6244" data-name="Path 6244" class="cls-5" d="M105.688,359.045A6.123,6.123,0,0,0,107.254,361a7.849,7.849,0,0,1,1.687,2.01,2.214,2.214,0,0,0,3.908,0,7.849,7.849,0,0,1,1.687-2.01,6.013,6.013,0,0,0,1.566-1.954,7.337,7.337,0,0,0,.539-1.682.887.887,0,0,0-.866-1.063h-9.761a.887.887,0,0,0-.866,1.063A7.337,7.337,0,0,0,105.688,359.045Z" transform="translate(-102.986 -356.3)"/>
      </g>
      <path id="Path_6245" data-name="Path 6245" class="cls-6" d="M3.286,233.4H23.4a.888.888,0,0,0,.886-.886v-2.624A.888.888,0,0,0,23.4,229H3.286a.888.888,0,0,0-.886.886v2.624A.884.884,0,0,0,3.286,233.4Z" transform="translate(-2.279 0)"/>
      <path id="Path_6246" data-name="Path 6246" class="cls-7" d="M22.143,741.7H1.886a.888.888,0,0,0-.886.886v2.624a.888.888,0,0,0,.886.886H22.143a.888.888,0,0,0,.886-.886v-2.624A.888.888,0,0,0,22.143,741.7Z" transform="translate(-0.95 -486.878)"/>
      <path id="Path_6247" data-name="Path 6247" class="cls-8" d="M2.286,229a.888.888,0,0,0-.886.886v2.624a.888.888,0,0,0,.886.886H12.344V229Z" transform="translate(-1.329 0)"/>
      <path id="Path_6248" data-name="Path 6248" class="cls-8" d="M.886,741.7a.888.888,0,0,0-.886.886v2.624a.888.888,0,0,0,.886.886H11.015v-4.4Z" transform="translate(0 -486.878)"/>
    </g>
  </g>
</svg>
