<svg xmlns="http://www.w3.org/2000/svg" xmlns:xlink="http://www.w3.org/1999/xlink" width="49.456" height="49.512" viewBox="0 0 49.456 49.512">
  <defs>
    <style>
      .cls-1 {
        fill: url(#linear-gradient);
      }

      .cls-2 {
        fill: #2db14c;
      }

      .cls-3 {
        clip-path: url(#clip-path);
      }

      .cls-4 {
        fill: #54dc54;
      }

      .cls-5 {
        fill: #fff;
      }

      .cls-6 {
        fill: #ff8700;
      }

      .cls-7 {
        fill: #fec309;
      }
    </style>
    <linearGradient id="linear-gradient" x1="0.067" y1="0.118" x2="0.917" y2="0.893" gradientUnits="objectBoundingBox">
      <stop offset="0" stop-color="#f2f2f2"/>
      <stop offset="1" stop-color="#d8d8d8"/>
    </linearGradient>
    <clipPath id="clip-path">
      <path id="Path_6292" data-name="Path 6292" d="M36.17,218.485v23.45a2.886,2.886,0,0,1-2.885,2.885h-12.8a2.886,2.886,0,0,1-2.885-2.885v-23.45a2.886,2.886,0,0,1,2.885-2.885h12.8a2.887,2.887,0,0,1,2.89,2.885Z" transform="translate(-17.6 -215.6)"/>
    </clipPath>
  </defs>
  <g id="PULSA" transform="translate(-38 -106.5)">
    <path id="Path_6309" data-name="Path 6309" class="cls-1" d="M44.593,43.79l.042-.042c.056-.056.112-.126.169-.183.014-.014.014-.028.028-.028.056-.07.112-.126.169-.2,0-.014.014-.014.014-.028.126-.155.253-.3.365-.45a.427.427,0,0,0,.07-.1c.028-.042.07-.084.1-.126s.07-.084.1-.126a.427.427,0,0,0,.07-.1c.028-.042.07-.1.1-.141a.6.6,0,0,0,.07-.1c.028-.056.07-.1.1-.155.014-.028.042-.056.056-.084a1.482,1.482,0,0,1,.1-.155c.014-.028.042-.056.056-.084.028-.056.07-.112.1-.169a.294.294,0,0,1,.056-.084c.028-.056.07-.112.1-.169l.042-.084c.028-.056.07-.112.1-.169l.042-.084c.028-.056.07-.112.1-.183l.042-.084a1.161,1.161,0,0,1,.1-.183.307.307,0,0,1,.042-.07c.028-.056.056-.126.084-.183a.307.307,0,0,1,.042-.07c.028-.07.056-.126.084-.2a.237.237,0,0,0,.028-.07c.028-.07.056-.126.084-.2.014-.028.014-.042.028-.07.028-.07.056-.126.084-.2.014-.028.014-.042.028-.07.028-.07.056-.141.084-.2.014-.028.014-.042.028-.07a1.237,1.237,0,0,0,.07-.211c.014-.028.014-.042.028-.07.028-.07.042-.141.07-.211.014-.028.014-.042.028-.07.028-.07.042-.141.07-.211,0-.028.014-.042.014-.07.028-.07.042-.141.07-.225a.608.608,0,0,0,.014-.07c.014-.07.042-.155.056-.225v-.028c0-.014,0-.028.014-.028l.126-.548a55.205,55.205,0,0,0,1.405-12.466A55.864,55.864,0,0,0,48.05,12.225,14.17,14.17,0,0,0,44.8,5.8l-.014-.014c-.056-.056-.1-.112-.155-.169l-.042-.042c-.042-.042-.084-.1-.126-.141l-.07-.07-.112-.112a.649.649,0,0,0-.1-.1L44.1,5.072l-.126-.126L43.933,4.9a1.6,1.6,0,0,1-.155-.155l-.014-.014a14.056,14.056,0,0,0-6.633-3.429,55.864,55.864,0,0,0-24.9,0l-.548.126c-.014,0-.028,0-.028.014h-.028c-.07.014-.155.042-.225.056-.014,0-.042.014-.056.014a2,2,0,0,0-.225.07c-.028,0-.042.014-.07.014-.07.028-.141.042-.211.07-.028.014-.042.014-.07.028-.07.028-.141.042-.211.07-.028.014-.042.014-.07.028a1.237,1.237,0,0,1-.211.07c-.028.014-.042.014-.07.028-.07.028-.141.056-.2.084-.028.014-.042.014-.07.028-.07.028-.126.056-.2.084-.028.014-.042.014-.07.028-.07.028-.126.056-.2.084a.237.237,0,0,1-.07.028c-.07.028-.126.056-.2.084a.307.307,0,0,0-.07.042c-.056.028-.126.056-.183.084a.307.307,0,0,0-.07.042,1.162,1.162,0,0,0-.183.1l-.084.042c-.056.028-.112.07-.183.1l-.084.042c-.056.028-.112.07-.169.1L8.1,2.907c-.056.028-.112.07-.169.1a.294.294,0,0,0-.084.056c-.056.028-.112.07-.169.1-.028.014-.056.042-.084.056a1.481,1.481,0,0,0-.155.1c-.028.014-.056.042-.084.056-.056.028-.1.07-.155.1a.6.6,0,0,1-.1.07c-.042.028-.1.07-.141.1a.427.427,0,0,1-.1.07c-.042.028-.084.07-.126.1s-.084.07-.126.1-.07.056-.1.084c-.155.126-.309.239-.45.365-.014,0-.014.014-.028.014a2.447,2.447,0,0,0-.2.169c-.014.014-.028.014-.028.028-.056.056-.126.112-.183.169l-.042.042-.169.169-.042.042L5.2,5.156,5.158,5.2l-.169.169-.042.042-.169.169-.042.042a.968.968,0,0,0-.155.183c-.014.014-.028.028-.028.042a1.78,1.78,0,0,0-.155.183c-.014.014-.028.028-.028.042-.056.056-.1.126-.155.183-.014.014-.014.028-.028.042-.056.07-.1.126-.155.2-.014.014-.014.028-.028.042-.056.07-.1.126-.155.2-.014.014-.014.028-.028.028-.056.07-.1.141-.155.211L3.64,7c-.056.07-.1.141-.155.211,0,.014-.014.014-.014.028a1.214,1.214,0,0,0-.141.225c0,.014-.014.014-.014.028-.042.07-.1.155-.141.225l-.014.014c-.042.084-.1.155-.141.239a.014.014,0,0,1-.014.014c-.042.084-.1.169-.141.239v.014c-.042.084-.1.169-.141.253h0a16.413,16.413,0,0,0-1.321,3.738,55.864,55.864,0,0,0,0,24.9,14.008,14.008,0,0,0,1.644,4.2h0a1.392,1.392,0,0,0,.155.239.014.014,0,0,0,.014.014c.042.084.1.155.141.239l.014.014c.042.07.1.155.141.225,0,.014.014.014.014.028.042.07.1.141.141.211.014.014.014.028.028.042.042.07.1.126.141.2.014.014.028.028.028.042.042.056.1.126.141.183.014.014.028.042.042.056a1.489,1.489,0,0,0,.141.169c.014.014.028.042.056.056a1.493,1.493,0,0,0,.126.155c.014.028.042.042.056.07.042.056.084.1.126.155.028.028.042.056.07.084a1.268,1.268,0,0,1,.126.141l.084.084c.042.042.07.084.112.126a.611.611,0,0,1,.084.1l.112.112.1.1.1.1.112.112c.028.028.07.056.1.084s.084.07.126.112l.084.084.126.126c.028.028.056.042.084.07s.1.084.141.126c.028.014.042.042.07.056.056.042.1.084.155.126a.247.247,0,0,1,.07.056,1.489,1.489,0,0,1,.169.141c.014.014.042.028.056.042.056.042.126.1.183.141l.042.042c.07.042.126.1.2.141.014.014.028.014.042.028.07.042.141.1.211.141.014,0,.014.014.028.014.07.042.141.1.225.141.014,0,.014.014.028.014a1.968,1.968,0,0,0,.225.141.014.014,0,0,1,.014.014,2.116,2.116,0,0,0,.239.141h0a14.009,14.009,0,0,0,4.2,1.644,55.205,55.205,0,0,0,12.466,1.405,55.864,55.864,0,0,0,12.438-1.405,14.148,14.148,0,0,0,3.71-1.363h0c.084-.042.169-.1.253-.141h.014c.084-.042.169-.1.239-.141a.014.014,0,0,0,.014-.014c.084-.042.155-.1.239-.141l.014-.014c.07-.042.155-.1.225-.141.014,0,.014-.014.028-.014.07-.042.141-.1.225-.141.014,0,.014-.014.028-.014a2.011,2.011,0,0,0,.211-.155L42.4,45.7c.07-.056.141-.1.211-.155.014-.014.028-.014.028-.028a2.4,2.4,0,0,0,.2-.155c.014-.014.028-.014.042-.028.07-.056.126-.1.2-.155.014-.014.028-.014.042-.028A2.1,2.1,0,0,0,43.3,45c.014-.014.028-.028.042-.028.056-.056.126-.1.183-.155.014-.014.028-.028.042-.028a.968.968,0,0,1,.183-.155l.042-.042.169-.169L44,44.381l.169-.169.042-.042L44.382,44l.042-.042A.953.953,0,0,0,44.593,43.79Z" transform="translate(38 106.6)"/>
    <g id="Group_2528" data-name="Group 2528" transform="translate(53 115.5)">
      <path id="Path_6290" data-name="Path 6290" class="cls-2" d="M36.17,218.485v23.45a2.886,2.886,0,0,1-2.885,2.885h-12.8a2.886,2.886,0,0,1-2.885-2.885v-23.45a2.886,2.886,0,0,1,2.885-2.885h12.8a2.887,2.887,0,0,1,2.89,2.885Z" transform="translate(-16.69 -214.69)"/>
      <g id="Group_2524" data-name="Group 2524" transform="translate(0.91 0.91)">
        <g id="Group_2523" data-name="Group 2523" class="cls-3" transform="translate(0 0)">
          <path id="Path_6291" data-name="Path 6291" class="cls-4" d="M195.83,32.725H178.32A15.219,15.219,0,0,1,163.1,17.5V0h17.5a15.219,15.219,0,0,1,15.22,15.22v17.5Z" transform="translate(-155.578 -11.146)"/>
        </g>
      </g>
      <g id="Group_2525" data-name="Group 2525" transform="translate(5.278 12.03)">
        <path id="Path_6293" data-name="Path 6293" class="cls-5" d="M105.409,436.743l-1.22-2.1h-.9v2.1H102.1V430.7h2.414a2.012,2.012,0,0,1,2.011,2.006,1.851,1.851,0,0,1-.321,1.039,1.978,1.978,0,0,1-.848.719l1.339,2.28Zm-2.12-4.927v1.789h1.225a.761.761,0,0,0,.579-.264.913.913,0,0,0,.243-.636.9.9,0,0,0-.243-.631.766.766,0,0,0-.579-.258Z" transform="translate(-102.1 -430.7)"/>
        <path id="Path_6294" data-name="Path 6294" class="cls-5" d="M206.107,461.8a1.976,1.976,0,0,1,1.489.662,2.436,2.436,0,0,1,0,3.236,1.975,1.975,0,0,1-1.489.662,1.666,1.666,0,0,1-1.4-.631v2.233H203.6v-6.044h1.112v.512A1.666,1.666,0,0,1,206.107,461.8Zm-1.06,3.154a1.149,1.149,0,0,0,.853.341,1.161,1.161,0,0,0,.858-.341,1.289,1.289,0,0,0,0-1.747,1.161,1.161,0,0,0-.858-.341,1.141,1.141,0,0,0-.853.341,1.3,1.3,0,0,0,0,1.747Z" transform="translate(-198.353 -460.192)"/>
      </g>
      <g id="Group_2526" data-name="Group 2526" transform="translate(0 0)">
        <path id="Path_6295" data-name="Path 6295" class="cls-6" d="M16.59,198H3.795A3.8,3.8,0,0,0,0,201.795v23.45a3.8,3.8,0,0,0,3.795,3.795h12.8a3.8,3.8,0,0,0,3.795-3.795v-23.45A3.8,3.8,0,0,0,16.59,198Zm1.98,27.245A1.978,1.978,0,0,1,16.6,227.22H3.795a1.978,1.978,0,0,1-1.975-1.975v-23.45a1.978,1.978,0,0,1,1.975-1.975H5.609v1.292a.911.911,0,0,0,.91.91h7.351a.911.911,0,0,0,.91-.91V199.82H16.6a1.978,1.978,0,0,1,1.975,1.975Z" transform="translate(0 -198)"/>
      </g>
      <g id="Group_2527" data-name="Group 2527" transform="translate(8.427 0)">
        <path id="Path_6296" data-name="Path 6296" class="cls-7" d="M174.963,201.795v23.45a3.8,3.8,0,0,1-3.795,3.795H163v-1.82h8.163a1.978,1.978,0,0,0,1.975-1.975v-23.45a1.978,1.978,0,0,0-1.975-1.975h-1.815v1.292a.911.911,0,0,1-.91.91H163V198h8.163a3.8,3.8,0,0,1,3.8,3.795Z" transform="translate(-163 -198)"/>
      </g>
    </g>
  </g>
</svg>
