<svg xmlns="http://www.w3.org/2000/svg" xmlns:xlink="http://www.w3.org/1999/xlink" width="49.456" height="49.512" viewBox="0 0 49.456 49.512">
  <defs>
    <style>
      .cls-1 {
        fill: url(#linear-gradient);
      }

      .cls-2 {
        fill: #e4eded;
      }

      .cls-3 {
        fill: #2db14c;
      }

      .cls-4 {
        clip-path: url(#clip-path);
      }

      .cls-5 {
        fill: #54dc54;
      }

      .cls-6 {
        fill: #ff8700;
      }

      .cls-7 {
        clip-path: url(#clip-path-2);
      }

      .cls-8 {
        fill: #fec309;
      }

      .cls-9 {
        fill: #fff;
      }
    </style>
    <linearGradient id="linear-gradient" y1="0.5" x2="1.001" y2="0.5" gradientUnits="objectBoundingBox">
      <stop offset="0" stop-color="#d6f8c7"/>
      <stop offset="1" stop-color="#61e1a2"/>
    </linearGradient>
    <clipPath id="clip-path">
      <path id="Path_6272" data-name="Path 6272" d="M105.334,235.9H87.9v23.066h18.3V236.772A.866.866,0,0,0,105.334,235.9Z" transform="translate(-87.9 -235.9)"/>
    </clipPath>
    <clipPath id="clip-path-2">
      <path id="Path_6275" data-name="Path 6275" d="M146.726,366.333a.852.852,0,0,1-.615-.258l-1.279-1.274h-1.8a.874.874,0,0,1-.872-.872v-1.8l-1.274-1.279a.871.871,0,0,1,0-1.234l1.274-1.279v-1.8a.874.874,0,0,1,.872-.872h1.8l1.279-1.274a.871.871,0,0,1,1.234,0l1.279,1.274h1.8a.874.874,0,0,1,.872.872v1.8l1.274,1.279a.871.871,0,0,1,0,1.234l-1.274,1.279v1.8a.874.874,0,0,1-.872.872h-1.8l-1.279,1.274A.871.871,0,0,1,146.726,366.333Z" transform="translate(-140.625 -354.125)"/>
    </clipPath>
  </defs>
  <g id="QURAN" transform="translate(-271 -106.5)">
    <path id="Path_6312" data-name="Path 6312" class="cls-1" d="M44.593,43.79l.042-.042c.056-.056.112-.126.169-.183.014-.014.014-.028.028-.028.056-.07.112-.126.169-.2,0-.014.014-.014.014-.028.126-.155.253-.3.365-.45a.427.427,0,0,0,.07-.1c.028-.042.07-.084.1-.126s.07-.084.1-.126a.427.427,0,0,0,.07-.1c.028-.042.07-.1.1-.141a.6.6,0,0,0,.07-.1c.028-.056.07-.1.1-.155.014-.028.042-.056.056-.084a1.482,1.482,0,0,1,.1-.155c.014-.028.042-.056.056-.084.028-.056.07-.112.1-.169a.294.294,0,0,1,.056-.084c.028-.056.07-.112.1-.169l.042-.084c.028-.056.07-.112.1-.169l.042-.084c.028-.056.07-.112.1-.183l.042-.084a1.161,1.161,0,0,1,.1-.183.307.307,0,0,1,.042-.07c.028-.056.056-.126.084-.183a.307.307,0,0,1,.042-.07c.028-.07.056-.126.084-.2a.237.237,0,0,0,.028-.07c.028-.07.056-.126.084-.2.014-.028.014-.042.028-.07.028-.07.056-.126.084-.2.014-.028.014-.042.028-.07.028-.07.056-.141.084-.2.014-.028.014-.042.028-.07a1.237,1.237,0,0,0,.07-.211c.014-.028.014-.042.028-.07.028-.07.042-.141.07-.211.014-.028.014-.042.028-.07.028-.07.042-.141.07-.211,0-.028.014-.042.014-.07.028-.07.042-.141.07-.225a.608.608,0,0,0,.014-.07c.014-.07.042-.155.056-.225v-.028c0-.014,0-.028.014-.028l.126-.548a55.205,55.205,0,0,0,1.405-12.466A55.864,55.864,0,0,0,48.05,12.225,14.17,14.17,0,0,0,44.8,5.8l-.014-.014c-.056-.056-.1-.112-.155-.169l-.042-.042c-.042-.042-.084-.1-.126-.141l-.07-.07-.112-.112a.649.649,0,0,0-.1-.1L44.1,5.072l-.126-.126L43.933,4.9a1.6,1.6,0,0,1-.155-.155l-.014-.014a14.056,14.056,0,0,0-6.633-3.429,55.864,55.864,0,0,0-24.9,0l-.548.126c-.014,0-.028,0-.028.014h-.028c-.07.014-.155.042-.225.056-.014,0-.042.014-.056.014a2,2,0,0,0-.225.07c-.028,0-.042.014-.07.014-.07.028-.141.042-.211.07-.028.014-.042.014-.07.028-.07.028-.141.042-.211.07-.028.014-.042.014-.07.028a1.237,1.237,0,0,1-.211.07c-.028.014-.042.014-.07.028-.07.028-.141.056-.2.084-.028.014-.042.014-.07.028-.07.028-.126.056-.2.084-.028.014-.042.014-.07.028-.07.028-.126.056-.2.084a.237.237,0,0,1-.07.028c-.07.028-.126.056-.2.084a.307.307,0,0,0-.07.042c-.056.028-.126.056-.183.084a.307.307,0,0,0-.07.042,1.162,1.162,0,0,0-.183.1l-.084.042c-.056.028-.112.07-.183.1l-.084.042c-.056.028-.112.07-.169.1L8.1,2.907c-.056.028-.112.07-.169.1a.294.294,0,0,0-.084.056c-.056.028-.112.07-.169.1-.028.014-.056.042-.084.056a1.481,1.481,0,0,0-.155.1c-.028.014-.056.042-.084.056-.056.028-.1.07-.155.1a.6.6,0,0,1-.1.07c-.042.028-.1.07-.141.1a.427.427,0,0,1-.1.07c-.042.028-.084.07-.126.1s-.084.07-.126.1-.07.056-.1.084c-.155.126-.309.239-.45.365-.014,0-.014.014-.028.014a2.447,2.447,0,0,0-.2.169c-.014.014-.028.014-.028.028-.056.056-.126.112-.183.169l-.042.042-.169.169-.042.042L5.2,5.156,5.158,5.2l-.169.169-.042.042-.169.169-.042.042a.968.968,0,0,0-.155.183c-.014.014-.028.028-.028.042a1.78,1.78,0,0,0-.155.183c-.014.014-.028.028-.028.042-.056.056-.1.126-.155.183-.014.014-.014.028-.028.042-.056.07-.1.126-.155.2-.014.014-.014.028-.028.042-.056.07-.1.126-.155.2-.014.014-.014.028-.028.028-.056.07-.1.141-.155.211L3.64,7c-.056.07-.1.141-.155.211,0,.014-.014.014-.014.028a1.214,1.214,0,0,0-.141.225c0,.014-.014.014-.014.028-.042.07-.1.155-.141.225l-.014.014c-.042.084-.1.155-.141.239a.014.014,0,0,1-.014.014c-.042.084-.1.169-.141.239v.014c-.042.084-.1.169-.141.253h0a16.413,16.413,0,0,0-1.321,3.738,55.864,55.864,0,0,0,0,24.9,14.008,14.008,0,0,0,1.644,4.2h0a1.392,1.392,0,0,0,.155.239.014.014,0,0,0,.014.014c.042.084.1.155.141.239l.014.014c.042.07.1.155.141.225,0,.014.014.014.014.028.042.07.1.141.141.211.014.014.014.028.028.042.042.07.1.126.141.2.014.014.028.028.028.042.042.056.1.126.141.183.014.014.028.042.042.056a1.489,1.489,0,0,0,.141.169c.014.014.028.042.056.056a1.493,1.493,0,0,0,.126.155c.014.028.042.042.056.07.042.056.084.1.126.155.028.028.042.056.07.084a1.268,1.268,0,0,1,.126.141l.084.084c.042.042.07.084.112.126a.611.611,0,0,1,.084.1l.112.112.1.1.1.1.112.112c.028.028.07.056.1.084s.084.07.126.112l.084.084.126.126c.028.028.056.042.084.07s.1.084.141.126c.028.014.042.042.07.056.056.042.1.084.155.126a.247.247,0,0,1,.07.056,1.489,1.489,0,0,1,.169.141c.014.014.042.028.056.042.056.042.126.1.183.141l.042.042c.07.042.126.1.2.141.014.014.028.014.042.028.07.042.141.1.211.141.014,0,.014.014.028.014.07.042.141.1.225.141.014,0,.014.014.028.014a1.968,1.968,0,0,0,.225.141.014.014,0,0,1,.014.014,2.116,2.116,0,0,0,.239.141h0a14.009,14.009,0,0,0,4.2,1.644,55.205,55.205,0,0,0,12.466,1.405,55.864,55.864,0,0,0,12.438-1.405,14.148,14.148,0,0,0,3.71-1.363h0c.084-.042.169-.1.253-.141h.014c.084-.042.169-.1.239-.141a.014.014,0,0,0,.014-.014c.084-.042.155-.1.239-.141l.014-.014c.07-.042.155-.1.225-.141.014,0,.014-.014.028-.014.07-.042.141-.1.225-.141.014,0,.014-.014.028-.014a2.011,2.011,0,0,0,.211-.155L42.4,45.7c.07-.056.141-.1.211-.155.014-.014.028-.014.028-.028a2.4,2.4,0,0,0,.2-.155c.014-.014.028-.014.042-.028.07-.056.126-.1.2-.155.014-.014.028-.014.042-.028A2.1,2.1,0,0,0,43.3,45c.014-.014.028-.028.042-.028.056-.056.126-.1.183-.155.014-.014.028-.028.042-.028a.968.968,0,0,1,.183-.155l.042-.042.169-.169L44,44.381l.169-.169.042-.042L44.382,44l.042-.042A.953.953,0,0,0,44.593,43.79Z" transform="translate(271 106.6)"/>
    <g id="Group_2521" data-name="Group 2521" transform="translate(285 -119.371)">
      <path id="Path_6269" data-name="Path 6269" class="cls-2" d="M21.792,691.155H3.777a3.777,3.777,0,1,1,0-7.555H21.792a.865.865,0,0,1,.783.5.877.877,0,0,1-.1.922,3.363,3.363,0,0,0,0,4.719.874.874,0,0,1-.679,1.418Z" transform="translate(0 -425.534)"/>
      <path id="Path_6270" data-name="Path 6270" class="cls-3" d="M105.334,235.9H87.9v23.066h18.3V236.772A.866.866,0,0,0,105.334,235.9Z" transform="translate(-83.543 -0.027)"/>
      <g id="Group_2518" data-name="Group 2518" transform="translate(4.357 235.873)">
        <g id="Group_2517" data-name="Group 2517" class="cls-4">
          <path id="Path_6271" data-name="Path 6271" class="cls-5" d="M260.079,31.379H243.294A14.594,14.594,0,0,1,228.7,16.785V0h16.785a14.594,14.594,0,0,1,14.594,14.594Z" transform="translate(-221.72 -11.694)"/>
        </g>
      </g>
      <path id="Path_6273" data-name="Path 6273" class="cls-6" d="M146.726,366.333a.852.852,0,0,1-.615-.258l-1.279-1.274h-1.8a.874.874,0,0,1-.872-.872v-1.8l-1.274-1.279a.871.871,0,0,1,0-1.234l1.274-1.279v-1.8a.874.874,0,0,1,.872-.872h1.8l1.279-1.274a.871.871,0,0,1,1.234,0l1.279,1.274h1.8a.874.874,0,0,1,.872.872v1.8l1.274,1.279a.871.871,0,0,1,0,1.234l-1.274,1.279v1.8a.874.874,0,0,1-.872.872h-1.8l-1.279,1.274A.871.871,0,0,1,146.726,366.333Z" transform="translate(-133.654 -112.392)"/>
      <g id="Group_2520" data-name="Group 2520" transform="translate(6.971 241.733)">
        <g id="Group_2519" data-name="Group 2519" class="cls-7" transform="translate(0 0)">
          <path id="Path_6274" data-name="Path 6274" class="cls-8" d="M260.079,31.379H243.294A14.594,14.594,0,0,1,228.7,16.785V0h16.785a14.594,14.594,0,0,1,14.594,14.594Z" transform="translate(-224.334 -17.555)"/>
        </g>
      </g>
      <path id="Path_6276" data-name="Path 6276" class="cls-6" d="M0,240.23v21.613H5.23V235.957A4.364,4.364,0,0,0,0,240.23Z"/>
      <path id="Path_6277" data-name="Path 6277" class="cls-6" d="M21.792,691.155H3.777a3.777,3.777,0,1,1,0-7.555H21.792a.865.865,0,0,1,.783.5.877.877,0,0,1-.1.922,3.363,3.363,0,0,0,0,4.719.874.874,0,0,1-.679,1.418Z" transform="translate(0 -425.534)"/>
      <path id="Path_6278" data-name="Path 6278" class="cls-8" d="M239.843,684.1a.871.871,0,0,0-.783-.5H228.6v7.555h10.46a.865.865,0,0,0,.783-.5.877.877,0,0,0-.1-.922,3.363,3.363,0,0,1,0-4.719A.877.877,0,0,0,239.843,684.1Z" transform="translate(-217.268 -425.534)"/>
      <path id="Path_6279" data-name="Path 6279" class="cls-9" d="M55.683,722.87a3.231,3.231,0,0,1,0-4.07H37.232a2.032,2.032,0,1,0,0,4.065H55.683Z" transform="translate(-33.455 -458.989)"/>
    </g>
  </g>
</svg>
