<svg xmlns="http://www.w3.org/2000/svg" width="19.774" height="20.985" viewBox="0 0 19.774 20.985">
  <defs>
    <style>
      .cls-1 {
        fill: none;
        stroke: #383838;
      }
    </style>
  </defs>
  <g id="XMLID_2_" transform="translate(0.5 0.5)">
    <path id="XMLID_4_" class="cls-1" d="M27.866,0H15.753a3.941,3.941,0,0,0-3.936,3.936v.908h-.908a.908.908,0,0,0,0,1.817h.908V9.084h-.908a.908.908,0,0,0,0,1.817h.908v2.422h-.908a.908.908,0,0,0,0,1.817h.908v.908a3.941,3.941,0,0,0,3.936,3.936H27.866a.908.908,0,0,0,.908-.908V.908A.908.908,0,0,0,27.866,0ZM16.056,14.837A4.239,4.239,0,0,1,20.3,10.6a2.725,2.725,0,1,1,2.725-2.725A2.725,2.725,0,0,1,20.3,10.6a4.239,4.239,0,0,1,4.239,4.239Z" transform="translate(-10)"/>
  </g>
</svg>
